<svg width="375" height="269" viewBox="0 0 375 269" fill="none" xmlns="http://www.w3.org/2000/svg">
<g filter="url(#filter0_d_621_15)">
<path d="M229.661 149.24H193.046C193.046 141.755 193.556 135.163 194.577 129.465C195.682 123.681 197.554 118.493 200.19 113.9C202.827 109.307 206.399 105.055 210.907 101.142C214.905 97.825 218.349 94.6355 221.241 91.5736C224.133 88.5117 226.344 85.4072 227.875 82.2603C229.406 79.1133 230.172 75.7537 230.172 72.1815C230.172 67.7587 229.534 64.1439 228.258 61.3372C227.067 58.5304 225.238 56.4466 222.772 55.0857C220.39 53.6398 217.371 52.9169 213.714 52.9169C210.737 52.9169 207.93 53.6398 205.293 55.0857C202.742 56.5317 200.658 58.7856 199.042 61.8475C197.426 64.8243 196.533 68.7793 196.363 73.7124H153.113C153.368 61.0395 156.175 50.748 161.534 42.8381C166.977 34.8431 174.207 29.0169 183.222 25.3596C192.323 21.6173 202.487 19.7461 213.714 19.7461C226.132 19.7461 236.806 21.6598 245.736 25.4872C254.667 29.3146 261.514 35.0132 266.277 42.5829C271.04 50.0676 273.421 59.2959 273.421 70.2678C273.421 77.5823 272.018 83.9613 269.211 89.4047C266.489 94.7631 262.79 99.7812 258.112 104.459C253.519 109.052 248.373 113.985 242.674 119.258C237.741 123.596 234.382 128.019 232.596 132.527C230.809 136.95 229.831 142.521 229.661 149.24ZM187.815 188.024C187.815 181.9 190.026 176.797 194.449 172.714C198.872 168.547 204.613 166.463 211.672 166.463C218.732 166.463 224.473 168.547 228.896 172.714C233.319 176.797 235.53 181.9 235.53 188.024C235.53 194.148 233.319 199.294 228.896 203.461C224.473 207.544 218.732 209.585 211.672 209.585C204.613 209.585 198.872 207.544 194.449 203.461C190.026 199.294 187.815 194.148 187.815 188.024Z" fill="#FFB184"/>
</g>
<g filter="url(#filter1_d_621_15)">
<path d="M307.838 187.021L287.272 176.074C289.51 171.87 291.767 168.32 294.044 165.425C296.394 162.507 298.996 160.152 301.85 158.361C304.705 156.57 307.982 155.249 311.684 154.399C314.921 153.731 317.809 152.97 320.349 152.114C322.889 151.259 325.059 150.177 326.86 148.867C328.661 147.557 330.095 145.899 331.163 143.892C332.485 141.408 333.208 139.187 333.33 137.229C333.501 135.297 333.097 133.58 332.118 132.078C331.213 130.554 329.733 129.245 327.679 128.152C326.007 127.262 324.214 126.829 322.301 126.852C320.435 126.902 318.591 127.545 316.768 128.781C314.97 129.97 313.286 131.924 311.716 134.644L287.424 121.714C291.356 114.672 296.009 109.731 301.384 106.89C306.832 104.027 312.634 102.916 318.792 103.557C325.022 104.176 331.29 106.164 337.596 109.521C344.571 113.233 349.994 117.499 353.866 122.319C357.738 127.139 359.879 132.387 360.291 138.062C360.729 143.69 359.308 149.586 356.027 155.748C353.84 159.857 351.145 163.02 347.941 165.238C344.81 167.434 341.232 169.147 337.206 170.375C333.253 171.582 328.888 172.814 324.11 174.072C320.043 175.034 316.834 176.514 314.483 178.511C312.157 180.462 309.942 183.298 307.838 187.021ZM272.738 196.294C274.569 192.855 277.337 190.649 281.042 189.679C284.772 188.66 288.619 189.206 292.584 191.317C296.55 193.428 299.151 196.314 300.389 199.978C301.653 203.593 301.369 207.12 299.538 210.56C297.707 214 294.927 216.229 291.197 217.247C287.492 218.218 283.657 217.648 279.692 215.537C275.727 213.427 273.113 210.564 271.849 206.948C270.611 203.285 270.907 199.734 272.738 196.294Z" fill="#CAB7FF"/>
</g>
<g filter="url(#filter2_d_621_15)">
<path d="M107.772 187.021L128.338 176.074C126.1 171.87 123.842 168.32 121.565 165.425C119.215 162.507 116.613 160.152 113.759 158.361C110.905 156.57 107.627 155.249 103.925 154.399C100.688 153.731 97.8 152.97 95.2603 152.114C92.7206 151.259 90.5504 150.177 88.7496 148.867C86.9488 147.557 85.5144 145.899 84.4464 143.892C83.1241 141.408 82.4016 139.187 82.2791 137.229C82.1087 135.297 82.5128 133.58 83.4913 132.078C84.3966 130.554 85.8764 129.245 87.9306 128.152C89.6026 127.262 91.3952 126.829 93.3085 126.852C95.1739 126.902 97.0182 127.545 98.8413 128.781C100.639 129.97 102.323 131.924 103.893 134.644L128.186 121.714C124.253 114.672 119.6 109.731 114.225 106.89C108.778 104.027 102.975 102.916 96.8178 103.557C90.5873 104.176 84.3192 106.164 78.0133 109.521C71.0385 113.233 65.6153 117.499 61.7436 122.319C57.8718 127.139 55.7299 132.387 55.3179 138.062C54.8804 143.69 56.3018 149.586 59.5822 155.748C61.7691 159.857 64.4645 163.02 67.6684 165.238C70.7992 167.434 74.3776 169.147 78.4036 170.375C82.3565 171.582 86.7216 172.814 91.4989 174.072C95.5666 175.034 98.7759 176.514 101.127 178.511C103.452 180.462 105.667 183.298 107.772 187.021ZM142.871 196.294C141.04 192.855 138.273 190.649 134.568 189.679C130.838 188.66 126.99 189.206 123.025 191.317C119.06 193.428 116.458 196.314 115.22 199.978C113.957 203.593 114.24 207.12 116.071 210.56C117.902 214 120.683 216.229 124.413 217.247C128.117 218.218 131.952 217.648 135.917 215.537C139.883 213.427 142.497 210.564 143.76 206.948C144.998 203.285 144.702 199.734 142.871 196.294Z" fill="#FFA9D2"/>
</g>
<path d="M219.373 149.821L220.257 149.831L220.29 148.947C220.537 142.298 221.569 136.855 223.352 132.586L223.354 132.58C225.123 128.265 228.429 123.994 233.341 119.776L233.349 119.769L233.358 119.761C239.125 114.549 244.338 109.669 248.994 105.121C253.788 100.439 257.606 95.3901 260.439 89.9724C263.389 84.4126 264.892 77.9039 264.98 70.4742C265.111 59.3726 262.811 49.9385 258.028 42.2206C253.25 34.4253 246.322 28.5297 237.285 24.5297C228.261 20.5357 217.483 18.4811 204.976 18.3335C193.649 18.1998 183.345 19.9664 174.077 23.65C164.854 27.2656 157.413 33.1184 151.772 41.1957L151.771 41.1975C146.192 49.2275 143.234 59.6709 142.825 72.459L142.796 73.3842L143.721 73.3951L186.968 73.9056L187.845 73.9159L187.885 73.0404C188.11 68.1907 189.032 64.3998 190.59 61.6081L190.59 61.6082L190.595 61.5988C192.178 58.6829 194.172 56.5941 196.561 55.2761C199.08 53.9344 201.743 53.283 204.563 53.3163C208.105 53.3581 210.94 54.092 213.126 55.4546L213.142 55.4646L213.158 55.4739C215.417 56.7551 217.091 58.6957 218.178 61.3449L218.183 61.3556L218.187 61.3661C219.36 64.0294 219.947 67.5109 219.896 71.8559C219.855 75.2933 219.082 78.508 217.577 81.5111C216.058 84.5427 213.868 87.547 210.992 90.5213C208.095 93.5173 204.641 96.6412 200.627 99.8929L200.619 99.8992L200.612 99.9057C195.99 103.822 192.299 108.108 189.55 112.768C186.803 117.425 184.837 122.687 183.646 128.545L183.646 128.545L183.644 128.555C182.543 134.307 181.952 140.947 181.863 148.471L181.853 149.378L182.76 149.389L219.373 149.821ZM183.286 171.3C178.626 175.503 176.25 180.821 176.175 187.191C176.1 193.562 178.349 198.974 182.904 203.369L182.911 203.375C187.479 207.693 193.428 209.864 200.673 209.949C207.918 210.035 213.917 208.005 218.585 203.796L218.592 203.79C223.25 199.504 225.626 194.146 225.701 187.775C225.776 181.405 223.527 176.033 218.968 171.722C214.402 167.318 208.452 165.102 201.203 165.016C193.955 164.931 187.954 167.005 183.286 171.3Z" stroke="white" stroke-width="1.81447"/>
<path d="M301.885 184.272L302.378 184.542L302.661 184.055C304.788 180.395 306.995 177.646 309.272 175.781L309.275 175.779C311.559 173.884 314.693 172.473 318.713 171.573L318.72 171.571L318.727 171.569C323.525 170.366 327.911 169.184 331.886 168.021C335.979 166.825 339.633 165.131 342.844 162.935C346.163 160.694 348.953 157.487 351.224 153.341C354.616 147.144 356.146 141.157 355.766 135.392C355.413 129.585 353.285 124.203 349.405 119.255C345.531 114.314 340.091 109.937 333.11 106.115C326.788 102.653 320.472 100.565 314.165 99.8628C307.904 99.1361 301.975 100.199 296.392 103.049L296.391 103.05C290.856 105.892 286.073 110.873 282.02 117.934L281.726 118.445L282.243 118.728L306.381 131.944L306.87 132.212L307.155 131.732C308.731 129.076 310.382 127.222 312.092 126.12L312.092 126.12L312.097 126.116C313.859 124.952 315.603 124.375 317.339 124.349C319.155 124.348 320.845 124.778 322.419 125.64C324.396 126.723 325.769 127.983 326.589 129.401L326.595 129.412L326.602 129.422C327.487 130.817 327.847 132.407 327.666 134.22L327.665 134.228L327.665 134.235C327.527 136.081 326.816 138.212 325.488 140.638C324.438 142.556 323.042 144.13 321.299 145.367C319.539 146.616 317.412 147.649 314.907 148.459C312.384 149.276 309.51 149.998 306.283 150.624L306.283 150.624L306.271 150.627C302.504 151.445 299.149 152.748 296.212 154.544C293.277 156.338 290.6 158.706 288.179 161.64L288.175 161.645C285.837 164.547 283.519 168.1 281.22 172.299L280.943 172.805L281.449 173.083L301.885 184.272ZM275.193 185.547C271.32 186.514 268.396 188.791 266.449 192.346C264.502 195.902 264.147 199.614 265.392 203.445L265.393 203.45C266.668 207.241 269.361 210.239 273.404 212.453C277.448 214.668 281.424 215.321 285.305 214.353L285.311 214.351C289.208 213.336 292.145 211.038 294.092 207.482C296.038 203.926 296.381 200.237 295.109 196.452C293.862 192.613 291.182 189.59 287.136 187.374C283.091 185.159 279.1 184.53 275.193 185.547Z" stroke="white" stroke-width="1.15453"/>
<path d="M113.725 184.272L113.231 184.542L112.948 184.055C110.822 180.395 108.615 177.646 106.337 175.781L106.334 175.779C104.05 173.884 100.917 172.473 96.8968 171.573L96.8896 171.571L96.8825 171.569C92.0848 170.366 87.6981 169.184 83.723 168.021C79.6308 166.825 75.9766 165.131 72.7655 162.935C69.4465 160.694 66.6564 157.487 64.3859 153.341C60.9929 147.144 59.4638 141.157 59.8434 135.392C60.1965 129.585 62.3247 124.203 66.2046 119.255C70.0788 114.314 75.5184 109.937 82.4991 106.115C88.8213 102.653 95.1371 100.565 101.444 99.8628C107.705 99.1361 113.635 100.199 119.217 103.049L119.219 103.05C124.753 105.892 129.537 110.873 133.59 117.934L133.883 118.445L133.366 118.728L109.229 131.944L108.739 132.212L108.455 131.732C106.879 129.076 105.228 127.222 103.518 126.12L103.518 126.12L103.512 126.116C101.751 124.952 100.006 124.375 98.2705 124.349C96.4547 124.348 94.7643 124.778 93.1901 125.64C91.2134 126.723 89.8403 127.983 89.02 129.401L89.014 129.412L89.0076 129.422C88.122 130.817 87.7619 132.407 87.9433 134.22L87.944 134.228L87.9446 134.235C88.0821 136.081 88.7932 138.212 90.121 140.638C91.1716 142.556 92.5671 144.13 94.3103 145.367C96.0701 146.616 98.1978 147.649 100.703 148.459C103.226 149.276 106.099 149.998 109.326 150.624L109.326 150.624L109.339 150.627C113.105 151.445 116.46 152.748 119.397 154.544C122.333 156.338 125.01 158.706 127.431 161.64L127.435 161.645C129.772 164.547 132.09 168.1 134.389 172.299L134.666 172.805L134.16 173.083L113.725 184.272ZM140.416 185.547C144.29 186.514 147.214 188.791 149.16 192.346C151.107 195.902 151.462 199.614 150.218 203.445L150.216 203.45C148.941 207.241 146.249 210.239 142.205 212.453C138.161 214.668 134.185 215.321 130.304 214.353L130.299 214.351C126.401 213.336 123.465 211.038 121.518 207.482C119.571 203.926 119.228 200.237 120.5 196.452C121.748 192.613 124.427 189.59 128.473 187.374C132.519 185.159 136.51 184.53 140.416 185.547Z" stroke="white" stroke-width="1.15453"/>
<path d="M405 72C395.167 78 370.7 84.6 351.5 63C327.5 36 317.5 16 283 11" stroke="white" stroke-linecap="round"/>
<path d="M-8 210.5C5.33333 204.5 37.4 197.8 59 219C86 245.5 102 261 135 251" stroke="white" stroke-linecap="round"/>
<circle cx="69.5" cy="28.5" r="12" stroke="white"/>
<circle cx="308.5" cy="233.5" r="3" stroke="white"/>
<defs>
<filter id="filter0_d_621_15" x="114.053" y="0.215794" width="198.429" height="267.96" filterUnits="userSpaceOnUse" color-interpolation-filters="sRGB">
<feFlood flood-opacity="0" result="BackgroundImageFix"/>
<feColorMatrix in="SourceAlpha" type="matrix" values="0 0 0 0 0 0 0 0 0 0 0 0 0 0 0 0 0 0 127 0" result="hardAlpha"/>
<feOffset dy="19.5303"/>
<feGaussianBlur stdDeviation="19.5303"/>
<feComposite in2="hardAlpha" operator="out"/>
<feColorMatrix type="matrix" values="0 0 0 0 0.210031 0 0 0 0 0.0633751 0 0 0 0 0.65 0 0 0 0.4 0"/>
<feBlend mode="normal" in2="BackgroundImageFix" result="effect1_dropShadow_621_15"/>
<feBlend mode="normal" in="SourceGraphic" in2="effect1_dropShadow_621_15" result="shape"/>
</filter>
<filter id="filter1_d_621_15" x="246.246" y="90.9542" width="138.977" height="164.032" filterUnits="userSpaceOnUse" color-interpolation-filters="sRGB">
<feFlood flood-opacity="0" result="BackgroundImageFix"/>
<feColorMatrix in="SourceAlpha" type="matrix" values="0 0 0 0 0 0 0 0 0 0 0 0 0 0 0 0 0 0 127 0" result="hardAlpha"/>
<feOffset dy="12.4269"/>
<feGaussianBlur stdDeviation="12.4269"/>
<feComposite in2="hardAlpha" operator="out"/>
<feColorMatrix type="matrix" values="0 0 0 0 0.210031 0 0 0 0 0.0633751 0 0 0 0 0.65 0 0 0 0.4 0"/>
<feBlend mode="normal" in2="BackgroundImageFix" result="effect1_dropShadow_621_15"/>
<feBlend mode="normal" in="SourceGraphic" in2="effect1_dropShadow_621_15" result="shape"/>
</filter>
<filter id="filter2_d_621_15" x="30.3869" y="90.9542" width="138.977" height="164.032" filterUnits="userSpaceOnUse" color-interpolation-filters="sRGB">
<feFlood flood-opacity="0" result="BackgroundImageFix"/>
<feColorMatrix in="SourceAlpha" type="matrix" values="0 0 0 0 0 0 0 0 0 0 0 0 0 0 0 0 0 0 127 0" result="hardAlpha"/>
<feOffset dy="12.4269"/>
<feGaussianBlur stdDeviation="12.4269"/>
<feComposite in2="hardAlpha" operator="out"/>
<feColorMatrix type="matrix" values="0 0 0 0 0.210031 0 0 0 0 0.0633751 0 0 0 0 0.65 0 0 0 0.4 0"/>
<feBlend mode="normal" in2="BackgroundImageFix" result="effect1_dropShadow_621_15"/>
<feBlend mode="normal" in="SourceGraphic" in2="effect1_dropShadow_621_15" result="shape"/>
</filter>
</defs>
</svg>
